# xmcd CD database file
#
# Track frame offsets:
#	150
#	21610
#	40882
#	67087
#	84360
#	100182
#	125360
#	139662
#	163607
#	187607
#	211390
#
# Disc length: 3084 seconds
#
# Revision: 0
# Processed by: cddbd v1.5.1PL0 Copyright (c) Steve Scherf et al.
# Submitted via: CDex 1.51
#
DISCID=920c0a0b
DTITLE=ANIMATO - ANIMATO
DYEAR=1994
DGENRE=New Age
TTITLE0=Imaginary Folk
TTITLE1=Peppermint
TTITLE2=Saudades
TTITLE3=Glycinia
TTITLE4=Matakiamou
TTITLE5=Kamlesh
TTITLE6=Prayer
TTITLE7=Bamboo Winds
TTITLE8=Wher Goes My Chuh
TTITLE9=Theme For Chris
TTITLE10=Mouchoirs
EXTD=YEAR: 1994
EXTT0=
EXTT1=
EXTT2=
EXTT3=
EXTT4=
EXTT5=
EXTT6=
EXTT7=
EXTT8=
EXTT9=
EXTT10=
PLAYORDER=
